# xmcd
# Track frame offsets:
# 150
# 14772
# 28070
# 45478
# 58457
# 72972
# 87563
# 108527
# 121782
# 133972
# 152542
# 165145
# 183616
# 198015
# 208263
#
# Disc length: 2984 seconds
# Revision: 0
# Processed by: cddbd v1.5.1PL0 Copyright (c) Steve Scherf et al.
# Submitted via: VisiTrax 2.9.10.228 - For more info visit www.synapsa.com
#
DISCID=d70ba60f
DTITLE=Various Artist - CB60303
DYEAR=1900
DGENRE=Karaoke
TTITLE0=Raye, Collin - What If Jesus Comes Back Like That
TTITLE1=Strait, George - What A Merry Christmas This Could Be
TTITLE2=Yearwood, Trisha - It Wasn't His Child
TTITLE3=Van Shelton, Ricky - Please Come Home For Christmas
TTITLE4=Strait, George - When It's Christmas Time In Texas
TTITLE5=Bogguss, - I'll Be Home For Christmas
TTITLE6=Whitley, Keith - There's A New Kid In Town
TTITLE7=Tritt, Travis - Christmas In My Home Town
TTITLE8=Anderson, \nAnderson, John - Christmas Time
TTITLE9=Gayle, Crystal - Have Yourself A Merry Little Christmas
TTITLE10=Stone, Doug - All I Want For Christmas Is You
TTITLE11=Mattea, Kathy - Star, The
TTITLE12=Rogers, Kenny - With Bells On
TTITLE13=Strait, George - Merry Christmas Strait To You
TTITLE14=Rabbitt, Eddie - We Wish You A Merry Christmas
EXTD=
EXTT0=
EXTT1=
EXTT2=
EXTT3=
EXTT4=
EXTT5=
EXTT6=
EXTT7=
EXTT8=
EXTT9=
EXTT10=
EXTT11=
EXTT12=
EXTT13=
EXTT14=
PLAYORDER=
